# xmcd
#
# Track frame offsets:
#	150
#	19033
#	30640
#	44570
#	58260
#	71154
#	84599
#	100686
#	115765
#	129610
#	144449
#	158497
#	173807
#	186969
#	200808
#	213564
#
# Disc length: 3138 seconds
#
# Revision: 1
# Processed by: cddbd v1.5.2PL0 Copyright (c) Steve Scherf et al.
# Submitted via: audiograbber 1.82.01
#
DISCID=e80c4010
DTITLE=Ataide e Alexandre - Do jeito que a galera gosta
DYEAR=2007
DGENRE=sertanejo
TTITLE0=Laço Aberto
TTITLE1=Estrada do Amor
TTITLE2=Deus me Livre
TTITLE3=Vida Boa
TTITLE4=Tá Nervoso... vai pescá
TTITLE5=Cachiblema
TTITLE6=Doces Palavras
TTITLE7=Rosas e Versos
TTITLE8=Só ficou Saudade
TTITLE9=Eu me Enganei
TTITLE10=Voce Marcou pra Mim
TTITLE11=Recomeçar
TTITLE12=Choradeira
TTITLE13=Fale Mal Quem Quiser
TTITLE14=Acordo pra Sonhar
TTITLE15=Pout Pourri: desata,amor carrapicho, comer comer
EXTD=
EXTT0=
EXTT1=
EXTT2=
EXTT3=
EXTT4=
EXTT5=
EXTT6=
EXTT7=
EXTT8=
EXTT9=
EXTT10=
EXTT11=
EXTT12=
EXTT13=
EXTT14=
EXTT15=
PLAYORDER=
